<svg width="637" height="573" viewBox="0 0 637 573" fill="none" xmlns="http://www.w3.org/2000/svg">
<mask id="mask0" mask-type="alpha" maskUnits="userSpaceOnUse" x="0" y="0" width="637" height="573">
<rect width="637" height="573" fill="#BCBCBC"/>
</mask>
<g mask="url(#mask0)">
<path d="M356.627 1079.16C270.575 1090.73 186.572 1087.22 156.708 1048.39C101.1 976.113 -78.5564 571.641 134.689 411.994C173.412 383.005 268.318 361.093 340.777 357.848C349.697 357.448 358.79 357.161 367.984 356.994L396.706 360.98C405.906 361.173 414.999 361.494 423.919 361.921C496.392 365.393 591.364 387.605 630.181 416.721C843.914 577.049 665.506 980.954 610.118 1053.06C580.375 1091.79 496.378 1095.03 410.292 1083.2" fill="white"/>
<path d="M356.627 1079.16C270.575 1090.73 186.572 1087.22 156.708 1048.39C101.1 976.113 -78.5564 571.641 134.689 411.994C173.412 383.005 268.318 361.093 340.777 357.848C349.697 357.448 358.79 357.161 367.984 356.994L396.706 360.98C405.906 361.173 414.999 361.494 423.919 361.921C496.392 365.393 591.364 387.605 630.181 416.721C843.914 577.049 665.506 980.954 610.118 1053.06C580.375 1091.79 496.378 1095.03 410.292 1083.2" stroke="#16151E" stroke-width="2" stroke-miterlimit="10"/>
<path d="M432.285 159.351C432.298 159.338 432.325 159.338 432.338 159.324C438.294 150.725 436.564 119.787 427.337 91.5453C418.104 63.3106 394.196 71.5026 394.196 71.5026C394.196 71.5026 402.121 52.6016 394.136 41.8192C386.157 31.0367 363.097 44.7902 363.097 44.7902C363.097 44.7902 369.399 15.7009 343.281 10.7337C315.414 5.43258 296.326 30.2422 291.779 40.7242C259.605 114.753 309.472 137.586 309.472 137.586C321.456 178.406 425.748 186.057 425.748 186.057C425.748 186.057 432.679 173.939 432.285 159.351Z" fill="#16151E"/>
<path d="M432.118 365.439C422.731 385.062 397.727 399.282 368.017 399.282C334.194 399.282 306.467 380.842 300.946 356.987C300.038 353.048 299.731 348.962 300.105 344.783C300.131 344.516 300.185 344.255 300.265 343.995L309.044 272.891L422.624 264.812L435.903 344.382C436.638 351.786 435.242 358.917 432.118 365.439Z" fill="#E9604A"/>
<path d="M424.166 221.375H430.288C440.61 221.375 448.976 209.538 448.976 194.937C448.976 180.335 440.61 168.498 430.288 168.498H422.617L424.166 221.375Z" fill="#F2644D"/>
<path d="M300.291 168.498H294.169C283.847 168.498 275.482 180.335 275.482 194.937C275.482 209.538 283.847 221.375 294.169 221.375H301.84L300.291 168.498Z" fill="#F2644D"/>
<path d="M422.444 142.573L445.163 244.763C445.163 279.58 396.799 318.624 361.988 318.624C327.177 318.624 283.754 292.192 283.754 257.375L296.366 142.573C296.366 140.25 296.493 137.953 296.74 135.697C296.82 134.909 296.927 134.128 297.04 133.346C301.5 102.909 327.725 79.5344 359.405 79.5344C376.81 79.5344 392.573 86.5914 403.977 97.9947C413.257 107.275 419.653 119.433 421.722 133.019C421.836 133.794 421.943 134.568 422.03 135.349C422.303 137.72 422.444 140.13 422.444 142.573Z" fill="#F2644D"/>
<path d="M319.987 97.2269C297.007 104.03 293.849 181.55 293.849 181.55C293.849 181.55 280.269 120.841 297.033 98.9828C313.798 77.1242 319.987 97.2269 319.987 97.2269Z" fill="#16151E"/>
<path d="M428.225 122.898C422.871 85.2093 296.479 37.5329 293.121 48.322C286.845 68.5182 270.281 92.5601 311.307 96.4925C317.049 97.04 362.075 100.318 365.146 100.872C403.389 107.849 414.872 138.14 417.55 151.58C417.576 151.693 417.596 151.807 417.616 151.92C419.192 159.872 420.307 167.056 421.061 172.671C422.063 180.108 425.541 183.413 425.541 183.413C425.541 183.413 432.358 152.027 428.225 122.898Z" fill="#16151E"/>
<path d="M383.253 232.391C383.253 232.391 382.585 242.586 374.86 249.43C370.928 252.921 365.166 255.532 356.727 255.505C349.21 255.479 343.815 253.643 339.949 251.085C330.943 245.15 330.202 235.322 330.202 235.322C330.202 235.322 331.804 235.736 335.463 236.124C339.529 236.537 346.138 236.911 355.913 236.598C365.166 236.304 372.003 235.249 376.53 234.267C381.056 233.286 383.253 232.391 383.253 232.391Z" fill="white"/>
<path d="M454.49 349.61C452.147 346.679 436.204 345.29 436.204 345.29L436.123 351.833C436.123 351.833 418.004 378.872 374.987 397.36C327.999 383.439 306.033 358.957 301.627 354.069C301.159 353.549 300.158 349.055 299.951 348.468C299.951 348.468 288.828 345.39 283.714 348.021C281.744 349.035 280.135 350.077 279.554 350.985C277.598 354.036 267.336 383.266 288.354 399.65C309.371 416.034 339.435 432.578 342.373 432.578C343.815 432.578 363.531 422.476 372.444 415.146C383.547 422.917 403.663 432.671 405.345 432.578C408.269 432.411 433.233 416.087 452.047 398.588C470.854 381.089 456.834 352.541 454.49 349.61Z" fill="white" stroke="#16151E" stroke-width="2" stroke-miterlimit="10"/>
<path d="M389.903 179.981C392.292 179.981 394.229 178.044 394.229 175.655C394.229 173.266 392.292 171.329 389.903 171.329C387.513 171.329 385.576 173.266 385.576 175.655C385.576 178.044 387.513 179.981 389.903 179.981Z" fill="#16151E"/>
<path d="M328.306 184.301C330.695 184.301 332.632 182.364 332.632 179.975C332.632 177.585 330.695 175.648 328.306 175.648C325.916 175.648 323.979 177.585 323.979 179.975C323.979 182.364 325.916 184.301 328.306 184.301Z" fill="#16151E"/>
<path d="M328.306 206.821C343.132 206.821 355.152 194.801 355.152 179.975C355.152 165.148 343.132 153.129 328.306 153.129C313.479 153.129 301.46 165.148 301.46 179.975C301.46 194.801 313.479 206.821 328.306 206.821Z" stroke="#16151E" stroke-width="4" stroke-miterlimit="10"/>
<path d="M388.454 202.501C403.28 202.501 415.3 190.482 415.3 175.655C415.3 160.828 403.28 148.809 388.454 148.809C373.627 148.809 361.608 160.828 361.608 175.655C361.608 190.482 373.627 202.501 388.454 202.501Z" stroke="#16151E" stroke-width="4" stroke-miterlimit="10"/>
<path d="M355.158 179.975H361.988" stroke="#16151E" stroke-width="4" stroke-miterlimit="10"/>
<path d="M386.959 468.823L375.926 457.791L364.893 468.823L375.926 479.856L386.959 468.823Z" fill="#CFCFCE"/>
<path d="M386.956 525.745L375.923 514.712L364.89 525.745L375.923 536.778L386.956 525.745Z" fill="#CFCFCE"/>
</g>
</svg>
