<svg width="223" height="245" viewBox="0 0 223 245" fill="none" xmlns="http://www.w3.org/2000/svg">
<rect x="222.581" y="189.393" width="176.28" height="174.796" rx="5" transform="rotate(161.793 222.581 189.393)" fill="#F1F1F1"/>
<path d="M104.862 81.3647C111.57 62.0463 101.4 40.9294 82.1485 34.1987C62.8966 27.4681 41.8524 37.6725 35.145 56.9909C28.4375 76.3093 38.6067 97.4262 57.8586 104.157C77.1105 110.888 98.1547 100.683 104.862 81.3647Z" fill="#F2644D" stroke="#16151E" stroke-width="2" stroke-miterlimit="10"/>
<path d="M77.8139 64.9273C77.159 64.5469 76.4582 64.2586 75.6884 64.0972C74.9301 63.9243 74.1374 63.8205 73.3331 63.7744C72.5174 63.7283 71.7016 63.7398 70.8744 63.786C70.817 63.786 70.771 63.7975 70.7136 63.7975L69.0017 58.0215C70.6217 58.0676 71.851 58.8516 72.6897 60.3734L77.136 59.0476C76.665 57.8832 76.0446 56.8917 75.2518 56.0847C74.4591 55.2776 73.5514 54.6666 72.5289 54.2631C71.5063 53.8596 70.3804 53.6405 69.1625 53.6175C68.6915 53.6059 68.2089 53.629 67.7149 53.6866L66.6694 50.1357L62.4414 51.3924L63.4754 54.8741C62.8894 55.1393 62.3609 55.4506 61.8554 55.7849C60.8559 56.4651 60.0631 57.2375 59.4657 58.1022C58.8682 58.9669 58.4891 59.9007 58.3053 60.9037C58.1329 61.9067 58.2019 62.9213 58.5006 63.9474C58.7878 64.9158 59.1899 65.7228 59.7184 66.3684C60.2469 67.014 60.9133 67.5328 61.729 67.9018C62.5448 68.2707 63.5214 68.5128 64.6588 68.6281C65.5205 68.7088 66.4856 68.7318 67.5541 68.6857L69.5532 75.4532C69.0591 75.4186 68.5766 75.3379 68.117 75.1765C67.4851 74.969 66.8992 74.6462 66.3822 74.1965C65.8537 73.7584 65.4056 73.182 65.0379 72.4672L60.5801 73.793C61.0742 75.0382 61.7175 76.1103 62.5103 77.0211C63.3145 77.9319 64.2567 78.6352 65.3481 79.1309C66.4396 79.6267 67.6804 79.8918 69.0821 79.9264C69.6566 79.9379 70.2425 79.9149 70.8629 79.8342L71.9199 83.4081L76.148 82.1515L75.1369 78.7159C75.8952 78.3931 76.596 78.0126 77.2394 77.563C78.262 76.8482 79.0777 76.0296 79.7096 75.1073C80.3415 74.185 80.7436 73.1935 80.9275 72.1213C81.1113 71.0492 81.0424 69.9539 80.7092 68.8241C80.4219 67.8672 80.0428 67.0717 79.5373 66.4491C79.0432 65.815 78.4688 65.3078 77.8139 64.9273ZM66.1868 64.0511C65.5434 64.0396 65.0035 63.9819 64.5554 63.8782C64.1188 63.7744 63.7741 63.613 63.5213 63.394C63.2686 63.1749 63.0962 62.8867 62.9814 62.5293C62.7286 61.6646 62.9124 60.8576 63.5443 60.1313C63.843 59.7854 64.2452 59.4626 64.7392 59.1859L66.1868 64.0511ZM76.3433 71.8677C76.2284 72.3404 75.9871 72.7785 75.6309 73.1935C75.2748 73.597 74.8152 73.9775 74.2523 74.3003C74.1374 74.3695 74.011 74.4387 73.8846 74.4963L72.1038 68.4667C72.931 68.4667 73.6203 68.5128 74.1833 68.6281C74.7807 68.7434 75.2518 68.9509 75.585 69.2391C75.9182 69.5273 76.1595 69.9193 76.3088 70.4151C76.4467 70.9108 76.4582 71.395 76.3433 71.8677Z" fill="black"/>
<path d="M137.673 47.7612C150.541 47.7612 160.973 37.2934 160.973 24.3806C160.973 11.4679 150.541 1 137.673 1C124.804 1 114.373 11.4679 114.373 24.3806C114.373 37.2934 124.804 47.7612 137.673 47.7612Z" fill="white" stroke="#16151E" stroke-width="2" stroke-miterlimit="10"/>
<path d="M143.049 25.9832C142.934 25.522 142.739 25.0839 142.475 24.6573C142.211 24.2423 141.912 23.8388 141.567 23.4583C141.222 23.0779 140.855 22.7089 140.464 22.3631C140.441 22.34 140.418 22.317 140.384 22.2939L142.188 18.9505C142.888 19.6999 143.084 20.5992 142.785 21.6598L145.359 23.0548C145.669 22.3285 145.83 21.6022 145.841 20.8874C145.853 20.1726 145.715 19.4924 145.439 18.8468C145.163 18.2011 144.761 17.6016 144.221 17.0483C144.014 16.8292 143.785 16.6332 143.543 16.4372L144.658 14.3851L142.211 13.0477L141.119 15.0653C140.74 14.9269 140.361 14.8232 139.993 14.754C139.246 14.6157 138.546 14.6041 137.902 14.7194C137.247 14.8347 136.661 15.0768 136.144 15.4573C135.616 15.8262 135.202 16.3104 134.88 16.8984C134.582 17.4518 134.398 18.0052 134.352 18.524C134.295 19.0543 134.375 19.5846 134.57 20.1149C134.766 20.6453 135.099 21.1871 135.547 21.752C135.892 22.1786 136.317 22.6167 136.811 23.0663L134.697 26.9862C134.49 26.7556 134.317 26.4904 134.18 26.2253C133.996 25.8448 133.881 25.4413 133.835 25.0147C133.8 24.5766 133.858 24.127 134.007 23.6428L131.422 22.2363C131.089 23.0087 130.894 23.7811 130.848 24.542C130.802 25.3029 130.917 26.0408 131.181 26.7556C131.445 27.4704 131.882 28.1391 132.491 28.7847C132.743 29.0498 133.019 29.3035 133.329 29.5456L132.215 31.6093L134.662 32.9466L135.731 30.9636C136.213 31.1596 136.696 31.298 137.178 31.3902C137.948 31.5286 138.683 31.5286 139.373 31.4017C140.062 31.2749 140.683 31.0098 141.245 30.6178C141.808 30.2258 142.257 29.6955 142.613 29.0498C142.911 28.4965 143.095 27.9661 143.153 27.4589C143.199 26.9285 143.164 26.4443 143.049 25.9832ZM138.247 20.3801C137.96 20.0919 137.753 19.8152 137.603 19.5731C137.454 19.331 137.374 19.1004 137.351 18.8929C137.339 18.6854 137.385 18.4778 137.489 18.2703C137.764 17.763 138.201 17.4979 138.81 17.4518C139.097 17.4287 139.419 17.4633 139.763 17.5671L138.247 20.3801ZM139.304 28.4157C139.04 28.5772 138.741 28.6694 138.396 28.6924C138.051 28.7155 137.684 28.6694 137.282 28.5656C137.201 28.5426 137.109 28.5195 137.029 28.4849L138.913 24.9917C139.281 25.3606 139.568 25.6949 139.763 25.9947C139.982 26.3175 140.097 26.6172 140.12 26.8939C140.143 27.1706 140.074 27.4589 139.913 27.7471C139.775 28.0353 139.568 28.2659 139.304 28.4157Z" fill="black"/>
<path d="M126.579 189.366C144.328 178.607 150.023 155.446 139.3 137.637C128.577 119.827 105.497 114.112 87.7487 124.872C70.0004 135.632 64.3051 158.792 75.0279 176.602C85.7507 194.411 108.831 200.126 126.579 189.366Z" fill="white" stroke="#16151E" stroke-width="2" stroke-miterlimit="10"/>
<path d="M116.027 158.9C115.763 158.173 115.395 157.493 114.901 156.871C114.419 156.236 113.867 155.648 113.258 155.084C112.649 154.519 112.006 154 111.328 153.493C111.282 153.458 111.236 153.423 111.19 153.4L113.58 147.774C114.809 148.869 115.269 150.288 114.947 152.028L119.279 153.885C119.669 152.663 119.819 151.487 119.715 150.334C119.623 149.181 119.302 148.12 118.762 147.129C118.222 146.137 117.486 145.238 116.544 144.431C116.177 144.12 115.786 143.82 115.372 143.543L116.843 140.084L112.718 138.321L111.271 141.722C110.639 141.549 110.018 141.445 109.409 141.387C108.192 141.272 107.066 141.364 106.043 141.652C105.021 141.941 104.113 142.425 103.332 143.094C102.55 143.762 101.941 144.604 101.516 145.607C101.114 146.552 100.907 147.451 100.907 148.305C100.896 149.158 101.091 149.999 101.493 150.818C101.895 151.636 102.493 152.467 103.309 153.285C103.929 153.919 104.676 154.553 105.538 155.21L102.734 161.805C102.367 161.459 102.045 161.079 101.792 160.664C101.436 160.087 101.183 159.453 101.057 158.761C100.93 158.07 100.953 157.332 101.126 156.525L96.7713 154.657C96.3462 155.948 96.1624 157.205 96.1968 158.438C96.2313 159.672 96.5185 160.836 97.0585 161.932C97.5985 163.027 98.3912 164.053 99.4597 164.987C99.8963 165.367 100.379 165.736 100.907 166.071L99.4253 169.552L103.55 171.316L104.975 167.973C105.779 168.215 106.583 168.365 107.364 168.434C108.628 168.538 109.8 168.434 110.88 168.123C111.971 167.811 112.925 167.293 113.764 166.578C114.602 165.863 115.257 164.952 115.728 163.846C116.119 162.912 116.337 162.035 116.349 161.217C116.406 160.398 116.28 159.626 116.027 158.9ZM107.491 150.645C106.997 150.218 106.606 149.815 106.33 149.446C106.055 149.077 105.882 148.731 105.825 148.397C105.767 148.062 105.813 147.728 105.963 147.371C106.319 146.529 106.985 146.022 107.962 145.86C108.421 145.78 108.938 145.791 109.513 145.895L107.491 150.645ZM110.386 163.373C109.995 163.673 109.524 163.857 108.973 163.949C108.433 164.042 107.824 164.03 107.169 163.915C107.031 163.892 106.893 163.869 106.755 163.834L109.26 157.943C109.915 158.473 110.42 158.969 110.788 159.418C111.179 159.903 111.408 160.364 111.489 160.813C111.558 161.263 111.5 161.724 111.294 162.208C111.075 162.693 110.777 163.085 110.386 163.373Z" fill="black"/>
</svg>
