<svg width="325" height="266" viewBox="0 0 325 266" fill="none" xmlns="http://www.w3.org/2000/svg">
<rect x="167.749" y="29" width="176.28" height="174.796" rx="5" transform="rotate(27.5139 167.749 29)" fill="#F1F1F1"/>
<g clip-path="url(#clip0)">
<path d="M224.16 168.554C223.754 170.562 223.081 172.504 222.095 174.307C218.6 180.7 211.763 184.482 205.054 187.337C202.625 188.371 200.16 189.328 197.67 190.206C189.39 193.132 180.805 195.191 172.098 196.357C165.425 197.253 158.685 197.623 151.952 197.446C142.911 197.215 133.815 194.847 125.284 197.574C116.751 194.847 107.652 197.215 98.6149 197.446C92.284 197.613 85.9467 197.296 79.6628 196.515C70.5504 195.384 61.5587 193.265 52.8975 190.207C50.4071 189.329 47.9421 188.373 45.5127 187.338C38.8017 184.484 31.9686 180.7 28.4701 174.308C25.8805 169.571 25.4496 163.876 26.3827 158.563C27.3158 153.247 29.5214 148.241 31.9648 143.43C34.009 139.402 36.2325 135.47 38.6123 131.629C39.3534 130.427 40.1162 129.236 40.8891 128.052C46.8171 118.975 53.5853 110.431 60.8531 102.37C63.0906 99.8883 65.403 97.4281 67.8642 95.1595C71.0665 92.212 74.5193 89.5805 78.3979 87.6215C89.6309 81.9575 102.876 82.6224 115.43 83.4217C118.547 83.6209 122.016 83.9445 125.284 83.6527C128.551 83.9445 132.02 83.6209 135.133 83.4217C147.687 82.6211 160.936 81.9563 172.165 87.6215C179.026 91.0841 184.567 96.6592 189.71 102.37C193.747 106.846 197.633 111.476 201.303 116.259C204.395 120.287 207.334 124.426 210.091 128.685C213.177 133.45 216.029 138.364 218.602 143.43C221.046 148.241 223.251 153.247 224.185 158.563C224.762 161.851 224.819 165.289 224.16 168.554Z" fill="white" stroke="#16151E" stroke-width="2" stroke-miterlimit="10"/>
<path d="M175.208 131.578H75.3583V201.417H175.208V131.578Z" fill="#16151E"/>
<rect width="10.2542" height="10.1679" transform="matrix(-0.704932 -0.709275 -0.709275 0.704932 132.44 161.273)" fill="#F1F1F1"/>
<path d="M129.289 211.735C130.777 215.306 134.729 217.306 138.573 217.795C142.418 218.283 146.298 217.572 150.164 217.308C154.03 217.044 158.151 217.299 161.369 219.455C165.043 221.916 166.882 226.711 166.084 231.055C165.285 235.4 162.026 239.136 157.932 240.814C153.485 242.636 148.405 242.132 143.782 240.825C134.911 238.317 126.893 232.899 121.263 225.612C122.791 220.298 125.023 215.261 129.289 211.735Z" fill="#16151E"/>
<path d="M145.595 214.317C145.532 216.766 145.517 219.169 145.394 221.518C137.855 227.079 128.58 230.357 119.255 231.842C109.629 233.377 99.8454 233.173 90.0871 232.587C83.5642 230.97 77.138 229.1 70.8465 226.986C59.4203 223.144 48.4302 218.505 38.0897 213.121C24.5913 206.094 11.5964 197.165 6.66136 185.344C1.7263 173.522 7.94407 158.531 23.2082 154.795C31.4969 152.766 40.6589 154.29 49.0251 156.461C67.2411 161.193 83.6837 168.799 98.7356 178.035C115.987 188.611 131.412 201.331 145.595 214.317Z" fill="#EDEDEE" stroke="#16151E" stroke-width="2" stroke-miterlimit="10"/>
<path d="M123.813 213.568C121.352 216.687 116.889 217.572 112.954 216.992C109.018 216.412 105.379 214.636 101.632 213.306C97.8839 211.976 93.7383 211.088 89.9588 212.33C85.6429 213.747 82.4952 217.979 82.0782 222.493C81.6612 227.009 83.8465 231.603 87.4277 234.393C91.3178 237.423 96.4791 238.331 101.413 238.317C110.878 238.29 120.308 235.151 127.896 229.505C127.86 223.829 127.051 218.233 123.813 213.568Z" fill="#16151E"/>
<path d="M249.19 185.344C244.255 197.165 231.262 206.094 217.761 213.122C200.951 221.875 182.43 228.66 163.083 233.238C148.133 236.778 132.687 235.717 117.155 236.514C110.101 229.011 110.495 227.518 110.261 218.183C121.545 207.852 133.615 193.822 146.765 184.772C164.566 172.519 184.344 162.304 206.825 156.462C215.194 154.287 224.356 152.765 232.643 154.793C247.906 158.531 254.125 173.522 249.19 185.344Z" fill="#EDEDEE" stroke="#16151E" stroke-width="2" stroke-miterlimit="10"/>
<path d="M135.658 42.5914C135.66 42.5888 135.666 42.5888 135.667 42.585C136.653 40.8569 135.803 35.0293 133.58 29.8386C131.355 24.6479 126.958 26.5993 126.958 26.5993C126.958 26.5993 128.143 22.8893 126.448 20.981C124.753 19.074 120.61 22.0646 120.61 22.0646C120.61 22.0646 121.316 16.4526 116.28 15.9502C110.904 15.4135 107.703 20.4316 107.015 22.4909C102.157 37.0441 111.999 40.5308 111.999 40.5308C114.958 48.0574 134.868 47.7554 134.868 47.7554C134.868 47.7554 135.978 45.346 135.658 42.5914Z" fill="#16151E"/>
<path d="M139.091 81.6073C137.64 85.4785 133.137 88.5908 127.502 89.0895C121.087 89.6566 115.518 86.6318 114.07 82.2087C113.831 81.4779 113.705 80.709 113.705 79.9122C113.705 79.8614 113.711 79.8107 113.721 79.7599L114.192 66.152L135.599 62.7173L139.454 77.5573C139.719 78.9454 139.574 80.3182 139.091 81.6073Z" fill="#E9604A"/>
<path d="M135.161 54.4687L136.323 54.3659C138.281 54.1934 139.669 51.8118 139.424 49.0471C139.179 46.2823 137.392 44.1825 135.435 44.355L133.98 44.4832L135.161 54.4687Z" fill="#F2644D"/>
<path d="M110.777 46.5361L109.615 46.6389C107.657 46.8115 106.269 49.193 106.515 51.9577C106.76 54.7225 108.546 56.8224 110.504 56.6498L111.958 56.5216L110.777 46.5361Z" fill="#F2644D"/>
<path d="M133.51 39.5792L139.537 58.5429C140.122 65.1331 131.606 73.3359 125.003 73.9196C118.4 74.5032 109.721 70.2286 109.135 63.6384L109.597 41.6943C109.558 41.2541 109.544 40.8176 109.553 40.3862C109.555 40.2352 109.562 40.0855 109.571 39.937C109.905 34.0992 114.487 29.2359 120.495 28.7043C123.796 28.4124 126.904 29.4833 129.259 31.4512C131.175 33.0525 132.593 35.2475 133.212 37.7839C133.247 37.9285 133.28 38.0732 133.31 38.2191C133.402 38.6631 133.468 39.1174 133.51 39.5792Z" fill="#F2644D"/>
<path d="M113.315 32.715C109.071 34.3872 109.774 49.1156 109.774 49.1156C109.774 49.1156 106.179 37.8511 108.99 33.4318C111.802 29.0138 113.315 32.715 113.315 32.715Z" fill="#16151E"/>
<path d="M134.275 35.7576C132.626 28.7119 107.852 21.807 107.397 23.9069C106.546 27.8351 103.808 32.6655 111.655 32.7201C112.754 32.7277 121.349 32.5919 121.94 32.6465C129.311 33.3253 131.998 38.8674 132.732 41.3657C132.738 41.3873 132.745 41.4076 132.751 41.4292C133.184 42.9073 133.516 44.2497 133.753 45.299C134.068 46.6909 134.784 47.2581 134.784 47.2581C134.784 47.2581 135.549 41.2033 134.275 35.7576Z" fill="#16151E"/>
<path d="M127.586 57.2397C127.586 57.2397 127.632 59.181 126.28 60.6072C125.592 61.3342 124.544 61.9255 122.943 62.0612C121.517 62.1818 120.463 61.9255 119.686 61.5068C117.878 60.5348 117.572 58.6862 117.572 58.6862C117.572 58.6862 117.883 58.7382 118.584 58.7496C119.363 58.7598 120.623 58.7192 122.47 58.4971C124.221 58.2865 125.5 57.9718 126.341 57.7105C127.183 57.4478 127.586 57.2397 127.586 57.2397Z" fill="white"/>
<path d="M143.067 78.2335C142.574 77.7183 139.527 77.7234 139.527 77.7234L139.622 78.9643C139.622 78.9643 136.64 84.3872 128.791 88.6072C119.645 86.7599 115.066 82.4941 114.149 81.6427C114.051 81.5527 113.786 80.7178 113.737 80.6099C113.737 80.6099 111.575 80.2141 110.649 80.7977C110.291 81.0223 110.004 81.2469 109.91 81.4283C109.591 82.0386 108.135 87.7445 112.397 90.4927C116.658 93.2409 122.639 95.8686 123.195 95.8204C123.468 95.7963 127.039 93.5531 128.605 92.0165C130.842 93.3018 134.821 94.8105 135.138 94.7648C135.69 94.6848 140.151 91.1753 143.426 87.5465C146.701 83.9177 143.562 78.7499 143.067 78.2335Z" fill="white" stroke="#16151E" stroke-width="2" stroke-miterlimit="10"/>
<path d="M127.893 47.2098C128.348 47.2098 128.717 46.8417 128.717 46.3876C128.717 45.9335 128.348 45.5654 127.893 45.5654C127.439 45.5654 127.07 45.9335 127.07 46.3876C127.07 46.8417 127.439 47.2098 127.893 47.2098Z" fill="#16151E"/>
<path d="M116.284 49.061C116.739 49.061 117.108 48.6929 117.108 48.2388C117.108 47.7847 116.739 47.4166 116.284 47.4166C115.829 47.4166 115.46 47.7847 115.46 48.2388C115.46 48.6929 115.829 49.061 116.284 49.061Z" fill="#16151E"/>
<path d="M116.284 53.3409C119.107 53.3409 121.396 51.0567 121.396 48.239C121.396 45.4213 119.107 43.1371 116.284 43.1371C113.461 43.1371 111.172 45.4213 111.172 48.239C111.172 51.0567 113.461 53.3409 116.284 53.3409Z" stroke="#16151E" stroke-miterlimit="10"/>
<path d="M127.619 51.5137C130.442 51.5137 132.731 49.2295 132.731 46.4118C132.731 43.5941 130.442 41.3099 127.619 41.3099C124.796 41.3099 122.507 43.5941 122.507 46.4118C122.507 49.2295 124.796 51.5137 127.619 51.5137Z" stroke="#16151E" stroke-miterlimit="10"/>
<path d="M121.376 47.7885L122.672 47.6743" stroke="#16151E" stroke-miterlimit="10"/>
<path d="M130.818 106.212L128.717 104.115L126.617 106.212L128.717 108.308L130.818 106.212Z" fill="#CFCFCE"/>
<path d="M130.818 117.028L128.718 114.932L126.617 117.028L128.718 119.125L130.818 117.028Z" fill="#CFCFCE"/>
<path d="M224.89 52.7634C211.098 51.2371 183.144 64.4098 177.292 76.9672C173.304 85.5279 173.27 94.5618 176.195 102.38C176.2 102.394 176.203 102.408 176.202 102.423C176.024 106.725 174.919 114.529 169.347 116.18C169.222 116.217 169.254 116.402 169.385 116.397C172.04 116.272 178.376 115.66 182.255 112.672C182.301 112.636 182.366 112.642 182.404 112.685C187.941 118.909 195.937 123.114 205.417 123.628C218.61 124.342 245.589 111.094 251.102 99.1105C260.578 78.519 247.249 55.2389 224.89 52.7634Z" fill="#F2644D"/>
<path d="M231.147 0.0799234C240.285 -0.931318 258.808 7.79682 262.684 16.1177C265.327 21.7893 265.348 27.7755 263.411 32.956C263.407 32.9649 263.406 32.9751 263.406 32.984C263.524 35.8337 264.255 41.0054 267.947 42.0978C268.029 42.1219 268.008 42.245 267.921 42.2412C266.162 42.1587 261.964 41.7527 259.394 39.7734C259.363 39.7505 259.32 39.7543 259.294 39.7822C255.627 43.9059 250.328 46.6922 244.047 47.0322C235.306 47.5055 217.43 38.7279 213.777 30.7876C207.5 17.1441 216.332 1.71923 231.147 0.0799234Z" fill="#C4C4C4"/>
</g>
<defs>
<clipPath id="clip0">
<rect width="268" height="242" fill="white"/>
</clipPath>
</defs>
</svg>
