<svg width="223" height="242" viewBox="0 0 223 242" fill="none" xmlns="http://www.w3.org/2000/svg">
<rect x="222.581" y="186.393" width="176.28" height="174.796" rx="5" transform="rotate(161.793 222.581 186.393)" fill="#F1F1F1"/>
<g clip-path="url(#clip0)">
<path d="M137.625 35.4658C140.544 27.061 136.119 17.8737 127.744 14.9454C119.368 12.0171 110.212 16.4567 107.294 24.8616C104.376 33.2664 108.8 42.4537 117.176 45.382C125.552 48.3103 134.707 43.8707 137.625 35.4658Z" fill="white" stroke="#16151E" stroke-width="2" stroke-miterlimit="10"/>
<path d="M125.858 28.3145C125.573 28.149 125.268 28.0236 124.933 27.9533C124.603 27.8781 124.258 27.833 123.908 27.8129C123.553 27.7928 123.198 27.7979 122.839 27.8179C122.814 27.8179 122.794 27.8229 122.769 27.8229L122.024 25.31C122.729 25.3301 123.263 25.6711 123.628 26.3332L125.563 25.7564C125.358 25.2498 125.088 24.8184 124.743 24.4673C124.398 24.1162 124.003 23.8504 123.558 23.6748C123.113 23.4993 122.624 23.404 122.094 23.3939C121.889 23.3889 121.679 23.399 121.464 23.424L121.009 21.8792L119.17 22.4259L119.619 23.9407C119.365 24.056 119.135 24.1915 118.915 24.3369C118.48 24.6329 118.135 24.9689 117.875 25.3451C117.615 25.7213 117.45 26.1276 117.37 26.564C117.295 27.0003 117.325 27.4417 117.455 27.8881C117.58 28.3095 117.755 28.6606 117.985 28.9415C118.215 29.2224 118.505 29.4481 118.86 29.6086C119.215 29.7691 119.639 29.8744 120.134 29.9246C120.509 29.9597 120.929 29.9697 121.394 29.9497L122.264 32.894C122.049 32.8789 121.839 32.8438 121.639 32.7736C121.364 32.6833 121.109 32.5429 120.884 32.3472C120.654 32.1566 120.459 31.9058 120.299 31.5949L118.36 32.1717C118.575 32.7134 118.855 33.1799 119.2 33.5761C119.549 33.9724 119.959 34.2783 120.434 34.494C120.909 34.7097 121.449 34.8251 122.059 34.8401C122.309 34.8451 122.564 34.8351 122.834 34.8L123.293 36.3549L125.133 35.8082L124.693 34.3134C125.023 34.173 125.328 34.0075 125.608 33.8119C126.053 33.5009 126.408 33.1448 126.682 32.7435C126.957 32.3422 127.132 31.9109 127.212 31.4444C127.292 30.9779 127.262 30.5014 127.117 30.0098C126.992 29.5935 126.827 29.2474 126.607 28.9766C126.393 28.7007 126.143 28.48 125.858 28.3145ZM120.799 27.9333C120.519 27.9283 120.284 27.9032 120.089 27.858C119.899 27.8129 119.749 27.7427 119.639 27.6474C119.529 27.5521 119.455 27.4267 119.405 27.2712C119.295 26.895 119.375 26.5439 119.649 26.2279C119.779 26.0774 119.954 25.937 120.169 25.8166L120.799 27.9333ZM125.218 31.334C125.168 31.5397 125.063 31.7303 124.908 31.9109C124.753 32.0864 124.553 32.2519 124.308 32.3924C124.258 32.4225 124.203 32.4526 124.148 32.4776L123.373 29.8544C123.733 29.8544 124.033 29.8744 124.278 29.9246C124.538 29.9747 124.743 30.065 124.888 30.1904C125.033 30.3158 125.138 30.4864 125.203 30.702C125.263 30.9177 125.268 31.1284 125.218 31.334Z" fill="black"/>
<path d="M151.9 20.8459C157.499 20.8459 162.037 16.2917 162.037 10.6737C162.037 5.05581 157.499 0.501587 151.9 0.501587C146.302 0.501587 141.763 5.05581 141.763 10.6737C141.763 16.2917 146.302 20.8459 151.9 20.8459Z" fill="white" stroke="#16151E" stroke-width="2" stroke-miterlimit="10"/>
<path d="M154.24 11.371C154.19 11.1703 154.105 10.9797 153.99 10.7941C153.875 10.6136 153.745 10.438 153.595 10.2725C153.445 10.107 153.285 9.94645 153.115 9.79597C153.105 9.78594 153.095 9.77591 153.08 9.76588L153.865 8.31128C154.17 8.63731 154.255 9.02855 154.125 9.49001L155.244 10.0969C155.379 9.78092 155.449 9.46493 155.454 9.15394C155.459 8.84296 155.399 8.54703 155.279 8.26614C155.159 7.98525 154.984 7.72443 154.749 7.48366C154.659 7.38836 154.559 7.30309 154.454 7.21782L154.939 6.325L153.875 5.74316L153.4 6.62094C153.235 6.56075 153.07 6.51561 152.91 6.48551C152.585 6.42532 152.28 6.4203 152 6.47046C151.715 6.52062 151.46 6.62595 151.235 6.79148C151.005 6.95198 150.826 7.16265 150.686 7.41846C150.556 7.65922 150.476 7.89998 150.456 8.12569C150.431 8.35642 150.466 8.58715 150.551 8.81788C150.636 9.04861 150.781 9.28436 150.975 9.53013C151.125 9.71572 151.31 9.90632 151.525 10.1019L150.606 11.8073C150.516 11.707 150.441 11.5916 150.381 11.4763C150.301 11.3108 150.251 11.1352 150.231 10.9496C150.216 10.759 150.241 10.5634 150.306 10.3527L149.181 9.7408C149.036 10.0769 148.951 10.4129 148.931 10.744C148.911 11.075 148.961 11.396 149.076 11.707C149.191 12.018 149.381 12.3089 149.646 12.5898C149.756 12.7052 149.876 12.8155 150.011 12.9208L149.526 13.8187L150.591 14.4005L151.055 13.5378C151.265 13.6231 151.475 13.6833 151.685 13.7234C152.02 13.7836 152.34 13.7836 152.64 13.7284C152.94 13.6732 153.21 13.5579 153.455 13.3873C153.7 13.2168 153.895 12.9861 154.05 12.7052C154.18 12.4644 154.26 12.2337 154.285 12.013C154.305 11.7823 154.29 11.5716 154.24 11.371ZM152.15 8.93325C152.025 8.80785 151.935 8.68747 151.87 8.58214C151.805 8.4768 151.77 8.37649 151.76 8.2862C151.755 8.19592 151.775 8.10563 151.82 8.01535C151.94 7.79465 152.13 7.67928 152.395 7.65922C152.52 7.64919 152.66 7.66424 152.81 7.70938L152.15 8.93325ZM152.61 12.4293C152.495 12.4995 152.365 12.5396 152.215 12.5497C152.065 12.5597 151.905 12.5396 151.73 12.4945C151.695 12.4845 151.655 12.4744 151.62 12.4594L152.44 10.9396C152.6 11.1001 152.725 11.2456 152.81 11.376C152.905 11.5164 152.955 11.6468 152.965 11.7672C152.975 11.8876 152.945 12.013 152.875 12.1384C152.815 12.2638 152.725 12.3641 152.61 12.4293Z" fill="black"/>
<path d="M222.275 122.638C221.695 117.752 221.665 118.815 220.156 118.55C219.851 118.499 212.258 118.996 209.224 110.369C207.185 104.565 202.776 94.8447 194.428 88.4395C202.906 82.907 205.04 74.1844 206.93 67.6889C182.617 62.9589 166.861 70.5279 162.477 73.0508C155.704 71.3304 147.851 70.1166 139.194 70.2219C90.8727 70.8288 66.9095 94.8196 65.5449 124.077C65.5149 124.714 65.4999 125.356 65.4999 125.998C65.4999 126.189 65.5049 126.374 65.5049 126.565C65.5998 133.387 70.4285 167.68 96.771 192.498H111.727C112.362 192.498 112.851 191.937 112.766 191.31L110.822 176.403C112.716 176.989 114.646 177.516 116.615 177.988C123.728 179.683 131.316 180.596 139.189 180.596C144.847 180.596 151.115 179.768 156.439 179.226C156.439 179.226 160.123 192.503 163.657 192.503L179.322 192.478C180.017 192.478 180.277 191.796 180.102 191.124C177.603 181.579 176.993 174.772 176.993 174.772C192.854 167.931 202.406 156.545 202.406 156.545C202.406 156.545 213.868 158.842 216.712 150.466C216.712 150.456 223.84 135.774 222.275 122.638ZM151.465 80.8906C151.465 80.8906 136.31 77.9363 121.064 81.3671C121.064 81.3671 120.924 80.0429 120.499 78.0717C136.285 74.4553 152.12 77.4798 152.12 77.4798L151.465 80.8906Z" fill="#F2644D" stroke="black" stroke-width="2" stroke-miterlimit="10"/>
<path d="M147.074 82.4538C154.796 77.7725 157.273 67.6962 152.608 59.9478C147.943 52.1994 137.902 49.713 130.18 54.3943C122.458 59.0756 119.98 69.1518 124.645 76.9002C129.311 84.6486 139.352 87.1351 147.074 82.4538Z" fill="white" stroke="#16151E" stroke-width="2" stroke-miterlimit="10"/>
<path d="M142.483 69.1987C142.368 68.8827 142.208 68.5868 141.993 68.3159C141.783 68.0401 141.543 67.7842 141.278 67.5385C141.013 67.2927 140.733 67.067 140.439 66.8463C140.419 66.8312 140.399 66.8162 140.379 66.8062L141.418 64.3584C141.953 64.8349 142.153 65.4519 142.013 66.2093L143.898 67.0168C144.067 66.4851 144.132 65.9735 144.087 65.4719C144.047 64.9704 143.908 64.5089 143.673 64.0775C143.438 63.6462 143.118 63.2549 142.708 62.9038C142.548 62.7684 142.378 62.638 142.198 62.5176L142.838 61.0128L141.043 60.2454L140.414 61.7251C140.139 61.6499 139.869 61.6047 139.604 61.5796C139.074 61.5295 138.584 61.5696 138.139 61.695C137.694 61.8204 137.299 62.0311 136.96 62.322C136.62 62.6129 136.355 62.9791 136.17 63.4154C135.995 63.8267 135.905 64.218 135.905 64.5892C135.9 64.9603 135.985 65.3265 136.16 65.6826C136.335 66.0387 136.595 66.3999 136.95 66.756C137.219 67.0319 137.544 67.3077 137.919 67.5936L136.7 70.4627C136.54 70.3122 136.4 70.1467 136.29 69.9661C136.135 69.7154 136.025 69.4395 135.97 69.1385C135.915 68.8376 135.925 68.5166 136 68.1654L134.105 67.3529C133.92 67.9147 133.84 68.4614 133.855 68.9981C133.87 69.5348 133.995 70.0414 134.23 70.5179C134.465 70.9944 134.81 71.4408 135.275 71.8471C135.465 72.0126 135.675 72.1731 135.905 72.3186L135.26 73.8334L137.054 74.6008L137.674 73.1462C138.024 73.2515 138.374 73.3167 138.714 73.3468C139.264 73.392 139.774 73.3468 140.244 73.2114C140.718 73.076 141.133 72.8503 141.498 72.5393C141.863 72.2283 142.148 71.832 142.353 71.3505C142.523 70.9442 142.618 70.563 142.623 70.2069C142.648 69.8508 142.593 69.5147 142.483 69.1987ZM138.769 65.6074C138.554 65.4218 138.384 65.2462 138.264 65.0857C138.144 64.9252 138.069 64.7747 138.044 64.6293C138.019 64.4838 138.039 64.3384 138.104 64.1829C138.259 63.8167 138.549 63.596 138.974 63.5258C139.174 63.4907 139.399 63.4957 139.649 63.5408L138.769 65.6074ZM140.029 71.1449C139.859 71.2753 139.654 71.3555 139.414 71.3957C139.179 71.4358 138.914 71.4308 138.629 71.3806C138.569 71.3706 138.509 71.3606 138.449 71.3455L139.539 68.7824C139.824 69.0131 140.044 69.2288 140.204 69.4244C140.374 69.6351 140.474 69.8357 140.509 70.0313C140.538 70.227 140.514 70.4276 140.424 70.6383C140.329 70.8489 140.199 71.0195 140.029 71.1449Z" fill="black"/>
<path d="M119 83L122.754 94.4297H148.506L152.465 82.0656C152.465 82.0656 144.09 80.0292 137 80.0292C130.59 80.0292 124 81 119 83Z" fill="#F2644D"/>
<path d="M183.106 107.344C184.026 107.344 184.771 106.596 184.771 105.674C184.771 104.752 184.026 104.004 183.106 104.004C182.187 104.004 181.442 104.752 181.442 105.674C181.442 106.596 182.187 107.344 183.106 107.344Z" fill="black"/>
<path d="M191.144 105.674C192.063 105.674 192.809 104.926 192.809 104.004C192.809 103.081 192.063 102.333 191.144 102.333C190.225 102.333 189.479 103.081 189.479 104.004C189.479 104.926 190.225 105.674 191.144 105.674Z" fill="black"/>
</g>
<defs>
<clipPath id="clip0">
<rect width="158" height="193" fill="white" transform="translate(65)"/>
</clipPath>
</defs>
</svg>
