<svg width="468" height="516" viewBox="0 0 468 516" fill="none" xmlns="http://www.w3.org/2000/svg">
<g clip-path="url(#clip0)">
<path d="M119.02 55.0213C127.492 46.549 127.492 32.8127 119.02 24.3404C110.548 15.8681 96.8122 15.8681 88.3401 24.3404C79.868 32.8127 79.868 46.549 88.3401 55.0213C96.8122 63.4936 110.548 63.4936 119.02 55.0213Z" fill="white" stroke="#16151E" stroke-width="3" stroke-miterlimit="10"/>
<path d="M108.682 41.1686C108.572 40.7398 108.391 40.3307 108.147 39.9412C107.899 39.5557 107.616 39.182 107.297 38.828C106.979 38.4739 106.636 38.1356 106.27 37.8131C106.247 37.7934 106.223 37.7698 106.2 37.7501L107.879 34.6503C108.528 35.3426 108.717 36.1805 108.438 37.1601L110.834 38.4582C111.125 37.7816 111.27 37.1089 111.278 36.448C111.286 35.7832 111.16 35.1538 110.9 34.5598C110.641 33.9658 110.267 33.4111 109.771 32.8958C109.579 32.6952 109.37 32.5064 109.142 32.3254L110.177 30.4175L107.895 29.1823L106.88 31.0548C106.526 30.925 106.176 30.8266 105.83 30.7598C105.134 30.6299 104.485 30.6181 103.879 30.7283C103.273 30.8384 102.726 31.0666 102.238 31.4088C101.751 31.7511 101.357 32.1995 101.058 32.7503C100.779 33.2695 100.61 33.7731 100.563 34.2608C100.512 34.7486 100.578 35.2404 100.763 35.7321C100.948 36.2238 101.255 36.7273 101.68 37.2466C102.002 37.64 102.396 38.0491 102.856 38.47L100.885 42.1048C100.692 41.8845 100.531 41.6485 100.401 41.3968C100.224 41.0466 100.118 40.6729 100.083 40.2678C100.047 39.8665 100.098 39.4417 100.24 38.9893L97.8366 37.6872C97.5258 38.4031 97.3488 39.1191 97.3055 39.8232C97.2623 40.5313 97.3646 41.2158 97.6124 41.8727C97.8602 42.5297 98.2693 43.1591 98.8318 43.7531C99.0639 43.997 99.3235 44.2291 99.6107 44.4533L98.5722 46.3691L100.854 47.6043L101.853 45.7593C102.305 45.9442 102.754 46.074 103.202 46.1527C103.922 46.2786 104.603 46.2825 105.244 46.1606C105.885 46.0386 106.467 45.7947 106.99 45.4289C107.514 45.063 107.938 44.5753 108.265 43.9695C108.544 43.4581 108.709 42.9663 108.764 42.4982C108.82 42.0498 108.792 41.6013 108.682 41.1686ZM104.213 35.972C103.95 35.7006 103.749 35.4528 103.607 35.2246C103.466 34.9965 103.391 34.788 103.375 34.5952C103.36 34.4025 103.403 34.2097 103.509 34.0169C103.761 33.5528 104.17 33.2971 104.74 33.2577C105.012 33.2381 105.307 33.2735 105.629 33.36L104.213 35.972ZM105.197 43.4305C104.953 43.58 104.673 43.6626 104.355 43.6862C104.036 43.7098 103.694 43.6705 103.32 43.5721C103.242 43.5525 103.163 43.5289 103.084 43.5013L104.839 40.2599C105.185 40.6021 105.448 40.909 105.637 41.1883C105.838 41.4872 105.948 41.7626 105.964 42.0222C105.983 42.2819 105.92 42.5454 105.775 42.809C105.637 43.0765 105.44 43.281 105.197 43.4305Z" fill="black"/>
<path d="M108.201 183.617C121.854 169.963 121.854 147.826 108.201 134.172C94.547 120.518 72.41 120.518 58.7563 134.172C45.1027 147.826 45.1027 169.963 58.7564 183.617C72.41 197.271 94.547 197.271 108.201 183.617Z" fill="white" stroke="#16151E" stroke-width="3" stroke-miterlimit="10"/>
<path d="M91.7299 160.53C91.486 159.858 91.1398 159.228 90.6875 158.642C90.2351 158.056 89.7237 157.505 89.1572 156.986C88.5908 156.467 87.9929 155.975 87.3595 155.515C87.3202 155.483 87.2769 155.456 87.2376 155.424L89.468 150.196C90.6166 151.207 91.0415 152.525 90.7386 154.142L94.7746 155.865C95.1365 154.736 95.2742 153.634 95.1876 152.572C95.0971 151.506 94.8021 150.515 94.2986 149.598C93.7951 148.682 93.1067 147.848 92.2334 147.096C91.8951 146.805 91.5293 146.53 91.1398 146.274L92.5127 143.06L88.6655 141.42L87.3202 144.575C86.7341 144.418 86.1598 144.315 85.5933 144.26C84.4604 144.154 83.414 144.233 82.4581 144.504C81.5023 144.772 80.6604 145.216 79.9288 145.842C79.1971 146.463 78.6346 147.242 78.2373 148.17C77.8636 149.044 77.6748 149.878 77.6669 150.672C77.659 151.463 77.84 152.242 78.2137 153.005C78.5835 153.768 79.1499 154.531 79.9091 155.298C80.4874 155.881 81.1758 156.479 81.9822 157.088L79.3663 163.213C79.0201 162.891 78.729 162.537 78.4851 162.147C78.1507 161.612 77.9226 161.026 77.8046 160.385C77.6866 159.744 77.7062 159.055 77.8636 158.312L73.8119 156.581C73.4185 157.781 73.2415 158.949 73.2769 160.09C73.3123 161.231 73.5798 162.312 74.0794 163.335C74.5789 164.358 75.3263 165.302 76.3176 166.171C76.7228 166.525 77.1752 166.864 77.6708 167.182L76.2901 170.416L80.1373 172.056L81.4629 168.949C82.2143 169.173 82.9577 169.318 83.6894 169.377C84.8616 169.472 85.9552 169.377 86.9662 169.086C87.9771 168.795 88.874 168.315 89.6568 167.651C90.4396 166.982 91.0494 166.14 91.4821 165.117C91.8518 164.256 92.0446 163.441 92.0642 162.682C92.0839 161.923 91.9738 161.207 91.7299 160.53ZM83.7838 152.863C83.7799 152.863 83.7799 152.863 83.7838 152.863C83.3196 152.466 82.9617 152.096 82.702 151.754C82.4424 151.412 82.289 151.085 82.2339 150.778C82.1789 150.472 82.2221 150.153 82.3598 149.827C82.6942 149.04 83.3157 148.576 84.2204 148.422C84.6492 148.351 85.1331 148.363 85.6602 148.454L83.7838 152.863ZM86.4784 164.684C86.1086 164.96 85.672 165.137 85.1685 165.219C84.661 165.302 84.1024 165.29 83.4927 165.188C83.3629 165.168 83.237 165.141 83.1033 165.113L85.436 159.649C86.0418 160.145 86.5138 160.601 86.8521 161.018C87.2179 161.467 87.4343 161.895 87.5051 162.308C87.572 162.721 87.513 163.154 87.3202 163.603C87.1275 164.047 86.8482 164.409 86.4784 164.684Z" fill="black"/>
<path d="M61.6997 92.835C73.0583 81.4761 73.0583 63.0597 61.6997 51.7009C50.3411 40.342 31.9252 40.342 20.5666 51.7009C9.20797 63.0597 9.20797 81.4761 20.5666 92.835C31.9252 104.194 50.3411 104.194 61.6997 92.835Z" fill="white" stroke="#16151E" stroke-width="3" stroke-miterlimit="10"/>
<path d="M47.3525 69.0578C46.8451 68.7431 46.2943 68.5149 45.6964 68.3694C45.0985 68.2238 44.4809 68.1294 43.8437 68.0822C43.2064 68.0389 42.5613 68.0271 41.9122 68.0547C41.8689 68.0547 41.8257 68.0586 41.7863 68.0586L40.5315 63.4993C41.8021 63.5623 42.7619 64.1995 43.4031 65.4072L46.9237 64.4395C46.5736 63.5151 46.0937 62.7283 45.484 62.0832C44.8743 61.4341 44.1662 60.9424 43.3637 60.608C42.5613 60.2697 41.6801 60.0848 40.7242 60.0494C40.3505 60.0336 39.9729 60.0455 39.5874 60.0809L38.8164 57.2761L35.4609 58.2005L36.2201 60.9502C35.7599 61.1509 35.3272 61.3829 34.9338 61.6426C34.1392 62.1618 33.5019 62.7558 33.0181 63.4246C32.5343 64.0933 32.2156 64.8211 32.0661 65.6039C31.9127 66.3867 31.9481 67.1853 32.1724 67.9957C32.3808 68.7588 32.6916 69.4 33.0968 69.9193C33.5019 70.4385 34.0251 70.8516 34.6585 71.1545C35.2957 71.4574 36.0589 71.662 36.9518 71.7682C37.6284 71.8508 38.3876 71.8783 39.2294 71.8586L40.7006 77.2007C40.3112 77.1693 39.9336 77.0906 39.5756 76.9647C39.0799 76.7916 38.6276 76.5241 38.2224 76.1701C37.8133 75.816 37.4711 75.3558 37.1878 74.7893L33.6514 75.761C34.0173 76.7444 34.505 77.5981 35.1226 78.3219C35.7363 79.0457 36.4719 79.6122 37.3255 80.0173C38.1791 80.4225 39.1547 80.6507 40.2522 80.7018C40.7006 80.7215 41.1687 80.7058 41.6565 80.6585L42.4315 83.4791L45.7869 82.5546L45.0395 79.8443C45.6453 79.6004 46.2039 79.3093 46.7113 78.9709C47.5256 78.4281 48.1865 77.7987 48.6939 77.0827C49.2014 76.3707 49.5397 75.5918 49.7009 74.7539C49.8662 73.916 49.8229 73.0506 49.579 72.1615C49.3705 71.4102 49.0755 70.7808 48.6978 70.2733C48.3005 69.7816 47.86 69.3725 47.3525 69.0578ZM38.2067 68.1845C38.2027 68.1845 38.2027 68.1845 38.2067 68.1845C37.6992 68.1648 37.2744 68.1137 36.9282 68.0232C36.582 67.9327 36.3145 67.8029 36.1179 67.6298C35.9212 67.4567 35.7874 67.2286 35.7088 66.9453C35.5199 66.2608 35.6812 65.6354 36.1926 65.0689C36.4365 64.7975 36.7551 64.5575 37.1485 64.3412L38.2067 68.1845ZM46.0819 74.4825C45.9836 74.8523 45.7908 75.1945 45.5037 75.5092C45.2165 75.8239 44.8467 76.1071 44.3944 76.3589C44.3 76.41 44.2016 76.4612 44.1033 76.5084L42.7894 71.7446C43.4385 71.7524 43.9853 71.8036 44.4219 71.9019C44.89 72.0042 45.2559 72.1733 45.5155 72.4054C45.7751 72.6375 45.9561 72.9522 46.0662 73.3417C46.1763 73.7351 46.1803 74.1127 46.0819 74.4825Z" fill="black"/>
<path d="M239.861 204.223C239.861 204.223 214.316 222.688 197.192 264.89C180.069 307.092 173.948 326.666 204.84 344.404C235.731 362.141 284.293 269.674 284.78 244.037C285.268 218.408 239.861 204.223 239.861 204.223Z" fill="#EDEDEE" stroke="#16151E" stroke-width="3" stroke-miterlimit="10"/>
<path d="M238.103 379.053C252.921 362.299 265.726 349.085 268.995 332.917C277.519 290.751 208.829 220.434 243.964 201.359C282.224 180.593 322.776 172.863 361.035 207.748C405.722 248.494 379.418 350.895 397.257 381.983C365.496 387.715 286.814 398.808 238.103 379.053Z" fill="#EDEDEE" stroke="#16151E" stroke-width="3" stroke-miterlimit="10"/>
<path d="M212.767 332.929C261.249 355.69 315.519 363.093 368.187 353.357C416.399 344.447 471.474 338.24 493.629 350.525C536.652 374.379 533.179 445.943 493.629 477.138C454.08 508.333 253.48 511.087 184.967 495.489C116.454 479.892 -8.31947 400.988 50.395 327.591C84.4727 284.992 157.486 306.974 212.767 332.929Z" fill="white" stroke="#16151E" stroke-width="3" stroke-miterlimit="10"/>
<path d="M206.358 473.401C204.835 465.82 194.132 457.799 170.278 460.927C170.278 460.927 147.954 462.233 135.11 473.047C122.267 483.861 123.793 490.894 132.357 495.788C140.92 500.682 178.535 496.398 190.462 494.258C202.388 492.122 207.88 480.981 206.358 473.401Z" fill="#16151E"/>
<path d="M330.601 195.718C338.645 179.763 438.711 229.667 471.227 292.407C503.743 355.147 470.939 377.684 334.483 372.165L325.841 351.524L417.107 313.996C417.107 313.996 384.355 284.331 371.849 273.332C336.375 242.141 324.673 207.468 330.601 195.718Z" fill="#EDEDEE" stroke="#16151E" stroke-width="3" stroke-miterlimit="10"/>
<path d="M275.257 259.363H119.136C116.713 259.363 114.746 261.33 114.746 263.753L139.934 370.029C139.934 378.852 147.085 386.008 155.912 386.008H304.834L279.647 263.753C279.647 261.326 277.68 259.363 275.257 259.363Z" fill="#16151E"/>
<path d="M139.934 366.685V370.025C139.934 378.848 147.085 386.004 155.912 386.004H368.037C375.57 386.004 381.675 379.899 381.675 372.365V366.685H139.934Z" fill="#16151E"/>
<path d="M201.669 324.306L211.743 332.457L217.911 321.061L207.837 312.91L201.669 324.306Z" fill="white"/>
<path d="M334.242 355.19C334.242 355.19 324.196 348.593 319.054 350.36C313.917 352.122 304.677 360.906 306.836 361.276C308.992 361.646 318.216 355.474 318.216 355.474C318.216 355.474 309.94 364.856 309.436 368.483C308.929 372.11 315.01 373.463 318.051 372.629C321.092 371.795 336.418 370.524 340.253 366.52C344.084 362.507 334.242 355.19 334.242 355.19Z" fill="#F2644D"/>
<path d="M260.497 482.138C250.403 479.844 237.52 480.761 237.52 480.761C237.52 480.761 234.185 480.25 229.032 479.884C215.952 478.963 191.146 479.007 179.302 490.851C162.788 507.365 189.852 520.209 216.039 514.706C218.159 514.261 220.141 513.832 222.061 513.415C240.435 509.415 249.774 506.881 257.02 508.742C265.021 510.799 270.587 484.431 260.497 482.138Z" fill="#16151E"/>
<path d="M238.021 81.7679C238.021 81.7679 241.4 64.7149 263.873 56.0684C286.346 47.4219 323.744 78.4714 316.62 111.421C309.492 144.37 300.063 156.557 282.011 147.895C263.963 139.229 233.383 111.248 238.021 81.7679Z" fill="#16151E"/>
<path d="M284.827 123.561L301.998 178.767C304.787 187.866 289.296 217.987 271.468 210.722C266.248 208.594 268.054 194.412 269.214 183.759L265.91 132.935L284.827 123.561Z" fill="#F2644D"/>
<path d="M288.057 88.2665L298.599 109.855C306.958 126.971 299.976 148.343 281.763 157.045C264.95 165.078 245.038 160.471 236.203 140.322C228.351 122.412 237.682 102.31 240.286 92.4403C246.218 69.935 273.978 64.3333 288.057 88.2665Z" fill="#F2644D"/>
<path d="M292.789 107.707C292.573 105.744 292.066 103.84 291.444 101.964C290.26 98.4039 289.328 92.8376 295.476 93.6794C304.418 94.9068 309.681 114.226 301.361 118.596C295.177 121.841 293.332 112.652 292.789 107.707Z" fill="#F2644D"/>
<path d="M239.118 112.282C239.212 110.504 239.574 108.762 240.042 107.043C240.927 103.774 241.49 98.7107 235.994 99.7807C228.001 101.335 224.228 119.009 231.946 122.526C237.674 125.138 238.878 116.767 239.118 112.282Z" fill="#F2644D"/>
<path d="M249.038 138.116C249.038 138.116 256.988 137.494 265.214 137.848C265.214 137.848 261.768 145.617 255.415 145.991C251.76 146.207 249.038 138.116 249.038 138.116Z" fill="#F2644D"/>
<path d="M273.192 29.594C273.192 29.594 271.39 6.46325 291.712 4.86612C312.033 3.269 344.329 31.9149 316.883 56.2376C289.434 80.5642 271.831 56.9771 273.192 29.594Z" fill="#16151E"/>
<path d="M257.194 112.007C258.601 112.007 259.743 110.866 259.743 109.458C259.743 108.05 258.601 106.909 257.194 106.909C255.786 106.909 254.645 108.05 254.645 109.458C254.645 110.866 255.786 112.007 257.194 112.007Z" fill="#16151E"/>
<path d="M271.547 110.599C272.955 110.599 274.096 109.457 274.096 108.05C274.096 106.642 272.955 105.5 271.547 105.5C270.139 105.5 268.998 106.642 268.998 108.05C268.998 109.457 270.139 110.599 271.547 110.599Z" fill="#16151E"/>
<path d="M278.569 127.636C278.569 127.636 279.824 133.525 276.539 138.643C274.867 141.251 272.019 143.658 267.228 144.992C262.96 146.18 259.609 146.003 257.004 145.173C250.947 143.249 248.952 137.797 248.952 137.797C248.952 137.797 249.928 137.777 252.064 137.408C254.436 136.991 258.244 136.145 263.735 134.402C268.935 132.754 272.645 131.062 275.052 129.78C277.464 128.501 278.569 127.636 278.569 127.636Z" fill="white"/>
</g>
<defs>
<clipPath id="clip0">
<rect width="525" height="516" fill="white"/>
</clipPath>
</defs>
</svg>
