<svg width="238" height="308" viewBox="0 0 238 308" fill="none" xmlns="http://www.w3.org/2000/svg">
<rect x="80.7494" y="41" width="176.28" height="174.796" rx="5" transform="rotate(27.5139 80.7494 41)" fill="#F1F1F1"/>
<g clip-path="url(#clip0)">
<path d="M94.8205 147.161C95.4966 131.019 105.217 121.835 110.704 115.135C117.12 115.331 120.591 115.256 128.142 114.493C137.051 113.593 145.976 111.735 153.088 108.231C155.366 115.325 157.962 123.99 161.09 134.892C173.276 177.362 148.034 292.886 148.034 292.886H140.623C140.623 292.886 135.831 153.773 128.839 146.133C128.829 146.121 128.818 146.106 128.807 146.094C128.807 146.094 106.545 279.583 103.231 292.885H95.5852C95.5852 292.886 94.4528 155.929 94.8205 147.161Z" fill="white" stroke="#16151E" stroke-width="2" stroke-miterlimit="10"/>
<path d="M94.3736 139.843C101.353 122.366 114.297 116.212 116.229 106.626C118.804 93.8425 87.5889 72.1704 112.216 64.55C118.782 62.518 133.583 56.1796 140.047 59.4182C142.429 60.6113 140.839 66.2737 142.867 69.4005C153.11 85.1866 152.274 94.272 164.416 136.647L140.047 143.098L132.672 131.738L124.899 143.098L94.3736 139.843Z" fill="#EDEDEE" stroke="#16151E" stroke-width="2" stroke-miterlimit="10"/>
<path d="M151.674 111.644L155.562 123.538C156.918 127.688 154.438 132.113 150.2 133.104C149.873 133.18 149.547 133.256 149.223 133.331C145.211 134.263 141.212 131.734 140.316 127.701L137.383 114.492L151.674 111.644Z" fill="#16151E"/>
<path d="M125.265 116.625L123.711 129.045C123.169 133.38 119.041 136.314 114.787 135.39C114.459 135.319 114.132 135.248 113.807 135.176C109.784 134.297 107.247 130.293 108.156 126.263L111.135 113.064L125.265 116.625Z" fill="#16151E"/>
<path d="M146.868 75.9306C144.357 73.4554 135.723 60.7933 139.645 59.3938C149.464 55.8898 176.823 76.2838 184.531 100.126C193.852 128.955 156.47 143.376 138.442 108.779C136.574 105.196 136.307 95.6865 138.923 92.6133C143.289 87.4836 164.984 102.248 164.816 99.3658C164.657 96.6485 146.868 75.9306 146.868 75.9306Z" fill="#EDEDEE" stroke="#16151E" stroke-width="2" stroke-miterlimit="10"/>
<path d="M148.035 292.886C148.035 292.886 147.198 296.98 147.517 297.62C147.645 297.875 150.678 298.868 153.064 300.097C154.129 301.033 155.17 302.234 154.016 302.607C152.042 303.247 140.448 303.254 139.36 301.328C138.995 300.682 138.532 300.171 138.02 299.776C139.567 297.486 140.438 294.961 140.624 292.886H148.035Z" fill="#F2644D"/>
<path d="M139.36 301.328C140.448 303.254 152.04 303.247 154.016 302.607C155.17 302.234 154.129 301.032 153.064 300.097C156.645 301.942 161.064 304.322 161.217 305.55C161.472 307.597 140.38 307.532 136.876 305.55C135.043 304.513 136.324 302.286 138.02 299.776C138.534 300.171 138.995 300.682 139.36 301.328Z" fill="#16151E"/>
<path d="M95.5851 292.886C95.5851 292.886 96.1057 295.519 94.8177 297.577C94.2555 298.473 92.6161 299.143 90.354 300.097C89.2888 301.033 88.2476 302.234 89.4015 302.607C91.3764 303.247 102.968 303.254 104.058 301.328C104.423 300.682 104.885 300.171 105.398 299.776C103.851 297.486 103.42 294.961 103.233 292.886H95.5851Z" fill="#F2644D"/>
<path d="M104.056 301.328C102.968 303.254 91.3763 303.247 89.4001 302.607C88.2463 302.234 89.2874 301.032 90.3527 300.097C86.7718 301.942 82.3524 304.322 82.1995 305.55C81.9446 307.597 103.037 307.532 106.541 305.55C108.374 304.513 107.092 302.286 105.397 299.776C104.884 300.171 104.421 300.682 104.056 301.328Z" fill="#16151E"/>
<path d="M80.9475 100.473C81.076 100.127 81.2085 99.7863 81.341 99.4455C89.3117 79.0192 99.1893 71.6853 103.675 69.2811C104.931 68.6078 106.476 69.1898 107.009 70.5391L110.165 78.5463C112.389 84.1875 111.223 90.6546 107.151 95.0733C105.409 96.9623 103.899 99.1702 103.374 101.489C103.015 103.078 103.431 104.495 105.026 105.568C109.98 108.897 125.538 90.4284 131.081 94.2691C134.402 96.5711 136.664 105.978 135.824 110.006C127.718 148.896 67.5106 136.74 80.9475 100.473Z" fill="#EDEDEE" stroke="#16151E" stroke-width="2" stroke-miterlimit="10"/>
<path d="M133.204 91.8051C131.775 90.1407 131.494 88.5961 131.494 88.5961C131.494 88.5961 134.594 90.1084 135.158 89.5859C135.723 89.0634 135.509 86.1507 134.912 84.3611C133.904 81.3434 136.383 82.3062 138.028 84.0379C139.673 85.7696 141.027 92.2791 139.727 94.4053C138.425 96.533 134.407 93.2069 133.204 91.8051Z" fill="#F2644D"/>
<path d="M132.898 96.4212C134.327 94.7568 134.607 93.2123 134.607 93.2123C134.607 93.2123 131.508 94.7245 130.943 94.202C130.378 93.6795 130.593 90.7668 131.19 88.9772C132.197 85.9595 129.718 86.9223 128.073 88.654C126.428 90.3858 125.075 96.8952 126.375 99.0215C127.676 101.148 131.696 97.8217 132.898 96.4212Z" fill="#F2644D"/>
<path d="M128.623 23.4965C128.623 23.4965 125.933 18.1936 117.754 17.4355C109.576 16.6773 100.18 30.387 105.574 40.578C110.967 50.769 115.193 53.9066 120.314 49.3726C125.437 44.84 132.879 32.7772 128.623 23.4965Z" fill="#16151E"/>
<path d="M117.136 41.6189L116.62 61.4031C116.548 64.6605 124.425 73.1413 129.603 69.0894C131.119 67.9031 129.211 63.3987 127.844 59.9986L124.216 42.948L117.136 41.6189Z" fill="#F2644D"/>
<path d="M112.804 30.2941L111.345 38.3871C110.189 44.8036 114.462 51.1932 121.247 52.3661C127.51 53.4487 133.619 50.0769 134.65 42.6167C135.566 35.9861 130.64 30.2335 128.871 27.2225C124.836 20.3616 115.204 21.0995 112.804 30.2941Z" fill="#F2644D"/>
<path d="M113.052 37.1388C112.941 36.4722 112.931 35.7976 112.961 35.1216C113.019 33.8383 112.809 31.918 110.869 32.7677C108.049 34.0039 108.112 40.8581 111.249 41.5233C113.578 42.0161 113.332 38.818 113.052 37.1388Z" fill="#F2644D"/>
<path d="M131.093 33.6511C130.897 33.0734 130.617 32.5334 130.304 32.011C129.71 31.0172 129.057 29.4013 130.96 29.2424C133.728 29.0108 136.605 34.4806 134.398 36.3591C132.758 37.7515 131.587 35.1054 131.093 33.6511Z" fill="#F2644D"/>
<path d="M130.232 43.0853C130.232 43.0853 127.565 43.6199 124.897 44.5033C124.897 44.5033 126.749 46.7427 128.869 46.2741C130.088 46.0034 130.232 43.0853 130.232 43.0853Z" fill="#F2644D"/>
<path d="M112.242 9.58351C112.242 9.58351 110.688 1.79617 103.871 3.16026C97.0543 4.52571 89.1091 16.9669 100.372 22.426C111.637 27.8837 115.228 18.4764 112.242 9.58351Z" fill="#16151E"/>
<path d="M124.897 35.2751C124.417 35.2751 124.028 34.8844 124.028 34.4025C124.028 33.9206 124.417 33.5299 124.897 33.5299C125.378 33.5299 125.767 33.9206 125.767 34.4025C125.767 34.8844 125.378 35.2751 124.897 35.2751Z" fill="#16151E"/>
<path d="M120.057 36.1477C119.577 36.1477 119.187 35.757 119.187 35.2751C119.187 34.7932 119.577 34.4025 120.057 34.4025C120.537 34.4025 120.926 34.7932 120.926 35.2751C120.926 35.757 120.537 36.1477 120.057 36.1477Z" fill="#16151E"/>
<path d="M119.567 42.3798C119.567 42.3798 119.701 44.436 121.254 45.8163C122.044 46.5205 123.202 47.047 124.897 47.0417C126.408 47.0363 127.492 46.666 128.269 46.1502C130.079 44.9531 130.228 42.9709 130.228 42.9709C130.228 42.9709 129.906 43.0544 129.171 43.1325C128.354 43.216 127.025 43.2914 125.061 43.2281C123.202 43.1689 121.828 42.9561 120.918 42.7582C120.01 42.5629 119.567 42.3798 119.567 42.3798Z" fill="white"/>
</g>
<rect x="206.423" width="18.0276" height="17.8758" rx="1" transform="rotate(31.633 206.423 0)" fill="#F2644D"/>
<rect x="211.748" y="28.933" width="18.0276" height="17.8758" rx="1" transform="rotate(55.8552 211.748 28.933)" fill="#F2644D"/>
<rect x="207.684" y="59.3095" width="18.0276" height="17.8758" rx="1" transform="rotate(37.4257 207.684 59.3095)" fill="#F2644D"/>
<path d="M206 9.30769L210.421 13L218 5" stroke="black" stroke-width="2"/>
<path d="M206 39.8462L210.421 44L218 35" stroke="black" stroke-width="2"/>
<path d="M206 68.8462L210.421 73L218 64" stroke="black" stroke-width="2"/>
<defs>
<clipPath id="clip0">
<rect width="109.065" height="304.061" fill="white" transform="matrix(-1 0 0 1 186.841 3)"/>
</clipPath>
</defs>
</svg>
